<?xml version="1.0" encoding="UTF-8"?>
<svg width="40px" height="40px" viewBox="0 0 40 40" version="1.1" xmlns="http://www.w3.org/2000/svg" xmlns:xlink="http://www.w3.org/1999/xlink">
    <!-- Generator: Sketch 52.6 (67491) - http://www.bohemiancoding.com/sketch -->
    <title>moon-btn</title>
    <desc>Created with Sketch.</desc>
    <g id="Page-1" stroke="none" stroke-width="1" fill="none" fill-rule="evenodd">
        <g id="Artboard" transform="translate(-1479.000000, -714.000000)">
            <g id="moon-btn" transform="translate(1479.000000, 714.000000)">
                <rect id="Rectangle-Copy-4" fill="#2F3F59" x="0" y="0" width="40" height="40" rx="20"></rect>
                <path d="M17.37,13.51 C17.19,14.15 17.1,14.82 17.1,15.5 C17.1,19.58 20.42,22.9 24.5,22.9 C25.18,22.9 25.85,22.81 26.49,22.63 C25.45,25.19 22.93,27 20,27 C16.14,27 13,23.86 13,20 C13,17.07 14.81,14.55 17.37,13.51 Z M20,11 C15.03,11 11,15.03 11,20 C11,24.97 15.03,29 20,29 C24.97,29 29,24.97 29,20 C29,19.54 28.96,19.08 28.9,18.64 C27.92,20.01 26.32,20.9 24.5,20.9 C21.52,20.9 19.1,18.48 19.1,15.5 C19.1,13.69 19.99,12.08 21.36,11.1 C20.92,11.04 20.46,11 20,11 Z" id="Shape-Copy-3" fill="#FFFFFF" fill-rule="nonzero"></path>
            </g>
        </g>
    </g>
</svg>